<svg xmlns="http://www.w3.org/2000/svg" viewBox="0 0 2 2">
 <path d="m1.75 0.95 0.16-0.2c-0.02-0.08-0.05-0.16-0.09-0.23l-0.25-0.03-0.06-0.06-0.03-0.25c-0.07-0.04-0.15-0.07-0.23-0.09l-0.2 0.16h-0.09l-0.2-0.16c-0.08 0.03-0.16 0.06-0.23 0.1l-0.03 0.25-0.06 0.06-0.25 0.03c-0.04 0.07-0.07 0.15-0.09 0.23l0.16 0.2v0.09l-0.16 0.2c0.02 0.08 0.05 0.16 0.09 0.23l0.25 0.03 0.06 0.06 0.03 0.25c0.07 0.04 0.15 0.07 0.23 0.09l0.2-0.16h0.09l0.2 0.16c0.08-0.02 0.16-0.05 0.23-0.09l0.03-0.25 0.06-0.06 0.25-0.03c0.04-0.07 0.07-0.15 0.09-0.23l-0.16-0.2v-0.09zm-0.75 0.05m-0.38 0a0.38 0.38 0 1 1 0.76 0 0.38 0.38 0 1 1-0.76 0z" fill="#c4c4c3" stroke="#000" stroke-width=".15" fill-rule="evenodd"/>
</svg>
